<?xml version="1.0" encoding="UTF-8" standalone="no"?>
<!DOCTYPE svg PUBLIC "-//W3C//DTD SVG 1.1//EN"
 "http://www.w3.org/Graphics/SVG/1.1/DTD/svg11.dtd">
<!-- Generated by graphviz version 14.1.1 (20251213.1925)
 -->
<!-- Title: StateTransitions Pages: 1 -->
<svg width="432pt" height="174pt"
 viewBox="0.00 0.00 432.00 174.00" xmlns="http://www.w3.org/2000/svg" xmlns:xlink="http://www.w3.org/1999/xlink">
<g id="graph0" class="graph" transform="scale(0.696774 0.696774) rotate(0) translate(4 246)">
<title>StateTransitions</title>
<polygon fill="white" stroke="none" points="-4,4 -4,-246 616,-246 616,4 -4,4"/>
<!-- waiting_code -->
<g id="node1" class="node">
<title>waiting_code</title>
<polygon fill="none" stroke="black" points="88.75,-36 0,-36 0,0 88.75,0 88.75,-36"/>
<text xml:space="preserve" text-anchor="middle" x="44.38" y="-12.95" font-family="Times,serif" font-size="14.00">waiting_code</text>
</g>
<!-- coding -->
<g id="node2" class="node">
<title>coding</title>
<polygon fill="none" stroke="black" points="202.75,-88 148.75,-88 148.75,-52 202.75,-52 202.75,-88"/>
<text xml:space="preserve" text-anchor="middle" x="175.75" y="-64.95" font-family="Times,serif" font-size="14.00">coding</text>
</g>
<!-- waiting_code&#45;&gt;coding -->
<g id="edge1" class="edge">
<title>waiting_code&#45;&gt;coding</title>
<path fill="none" stroke="black" stroke-width="2.65" d="M89.18,-35.6C104.22,-41.65 120.95,-48.37 135.59,-54.26"/>
<polygon fill="black" stroke="black" stroke-width="2.65" points="134.05,-57.41 144.63,-57.9 136.66,-50.92 134.05,-57.41"/>
<text xml:space="preserve" text-anchor="middle" x="118.75" y="-54.9" font-family="Times,serif" font-size="14.00">0.82</text>
</g>
<!-- incomplete -->
<g id="node6" class="node">
<title>incomplete</title>
<polygon fill="none" stroke="black" points="599.62,-93 522.88,-93 522.88,-57 599.62,-57 599.62,-93"/>
<text xml:space="preserve" text-anchor="middle" x="561.25" y="-69.95" font-family="Times,serif" font-size="14.00">incomplete</text>
</g>
<!-- waiting_code&#45;&gt;incomplete -->
<g id="edge7" class="edge">
<title>waiting_code&#45;&gt;incomplete</title>
<path fill="none" stroke="black" stroke-width="1.35" d="M89.22,-9.86C114.19,-5.91 146.12,-2 174.75,-2 174.75,-2 174.75,-2 424.5,-2 465.31,-2 505.68,-27.91 531.64,-48.86"/>
<polygon fill="black" stroke="black" stroke-width="1.35" points="529.38,-51.53 539.29,-55.27 533.88,-46.16 529.38,-51.53"/>
<text xml:space="preserve" text-anchor="middle" x="299.62" y="-5.2" font-family="Times,serif" font-size="14.00">0.18</text>
</g>
<!-- coding&#45;&gt;incomplete -->
<g id="edge4" class="edge">
<title>coding&#45;&gt;incomplete</title>
<path fill="none" stroke="black" stroke-width="1.01" d="M203.09,-68.46C220.1,-67.54 242.73,-66.47 262.75,-66 350.41,-63.96 452.57,-68.58 511.49,-71.93"/>
<polygon fill="black" stroke="black" stroke-width="1.01" points="510.97,-75.4 521.15,-72.49 511.37,-68.41 510.97,-75.4"/>
<text xml:space="preserve" text-anchor="middle" x="366.5" y="-69.55" font-family="Times,serif" font-size="14.00">0.01</text>
</g>
<!-- test_queue -->
<g id="node7" class="node">
<title>test_queue</title>
<polygon fill="none" stroke="black" points="336.5,-111 262.75,-111 262.75,-75 336.5,-75 336.5,-111"/>
<text xml:space="preserve" text-anchor="middle" x="299.62" y="-87.95" font-family="Times,serif" font-size="14.00">test_queue</text>
</g>
<!-- coding&#45;&gt;test_queue -->
<g id="edge8" class="edge">
<title>coding&#45;&gt;test_queue</title>
<path fill="none" stroke="black" stroke-width="2.99" d="M203.2,-74.99C216.49,-77.5 233.05,-80.62 248.62,-83.56"/>
<polygon fill="black" stroke="black" stroke-width="2.99" points="247.6,-86.93 258.08,-85.35 248.9,-80.05 247.6,-86.93"/>
<text xml:space="preserve" text-anchor="middle" x="232.75" y="-85.39" font-family="Times,serif" font-size="14.00">0.99</text>
</g>
<!-- waiting_rework -->
<g id="node3" class="node">
<title>waiting_rework</title>
<polygon fill="none" stroke="black" points="612,-242 510.5,-242 510.5,-206 612,-206 612,-242"/>
<text xml:space="preserve" text-anchor="middle" x="561.25" y="-218.95" font-family="Times,serif" font-size="14.00">waiting_rework</text>
</g>
<!-- waiting_rework&#45;&gt;coding -->
<g id="edge2" class="edge">
<title>waiting_rework&#45;&gt;coding</title>
<path fill="none" stroke="black" stroke-width="3" d="M510.31,-219.05C496.63,-217.12 481.89,-214.5 468.5,-211 352.29,-180.61 324.06,-164.28 220.75,-103 217.48,-101.06 214.15,-98.92 210.88,-96.69"/>
<polygon fill="black" stroke="black" stroke-width="3" points="213.24,-94.08 203.08,-91.09 209.16,-99.77 213.24,-94.08"/>
<text xml:space="preserve" text-anchor="middle" x="366.5" y="-187.15" font-family="Times,serif" font-size="14.00">1.00</text>
</g>
<!-- testing -->
<g id="node4" class="node">
<title>testing</title>
<polygon fill="none" stroke="black" points="450.5,-174 396.5,-174 396.5,-138 450.5,-138 450.5,-174"/>
<text xml:space="preserve" text-anchor="middle" x="423.5" y="-150.95" font-family="Times,serif" font-size="14.00">testing</text>
</g>
<!-- testing&#45;&gt;waiting_rework -->
<g id="edge10" class="edge">
<title>testing&#45;&gt;waiting_rework</title>
<path fill="none" stroke="black" stroke-width="2.2" d="M450.97,-169.98C456.73,-172.98 462.81,-176.12 468.5,-179 482.09,-185.88 496.88,-193.21 510.54,-199.91"/>
<polygon fill="black" stroke="black" stroke-width="2.2" points="508.68,-202.9 519.2,-204.14 511.76,-196.61 508.68,-202.9"/>
<text xml:space="preserve" text-anchor="middle" x="480.5" y="-193.5" font-family="Times,serif" font-size="14.00">0.60</text>
</g>
<!-- complete -->
<g id="node5" class="node">
<title>complete</title>
<polygon fill="none" stroke="black" points="594.38,-179 528.12,-179 528.12,-143 594.38,-143 594.38,-179"/>
<text xml:space="preserve" text-anchor="middle" x="561.25" y="-155.95" font-family="Times,serif" font-size="14.00">complete</text>
</g>
<!-- testing&#45;&gt;complete -->
<g id="edge3" class="edge">
<title>testing&#45;&gt;complete</title>
<path fill="none" stroke="black" stroke-width="1.79" d="M451,-156.98C469.36,-157.65 494.25,-158.57 515.64,-159.36"/>
<polygon fill="black" stroke="black" stroke-width="1.79" points="515.25,-162.84 525.38,-159.72 515.51,-155.85 515.25,-162.84"/>
<text xml:space="preserve" text-anchor="middle" x="480.5" y="-161.7" font-family="Times,serif" font-size="14.00">0.39</text>
</g>
<!-- testing&#45;&gt;incomplete -->
<g id="edge6" class="edge">
<title>testing&#45;&gt;incomplete</title>
<path fill="none" stroke="black" stroke-width="1.01" d="M451,-140.19C470.53,-128.53 497.47,-112.46 519.71,-99.19"/>
<polygon fill="black" stroke="black" stroke-width="1.01" points="521.44,-102.23 528.24,-94.1 517.86,-96.22 521.44,-102.23"/>
<text xml:space="preserve" text-anchor="middle" x="480.5" y="-130.69" font-family="Times,serif" font-size="14.00">0.01</text>
</g>
<!-- test_queue&#45;&gt;testing -->
<g id="edge9" class="edge">
<title>test_queue&#45;&gt;testing</title>
<path fill="none" stroke="black" stroke-width="2.32" d="M336.2,-111.39C351.39,-119.24 369.14,-128.42 384.58,-136.4"/>
<polygon fill="black" stroke="black" stroke-width="2.32" points="382.77,-139.4 393.26,-140.88 385.98,-133.18 382.77,-139.4"/>
<text xml:space="preserve" text-anchor="middle" x="366.5" y="-135.2" font-family="Times,serif" font-size="14.00">0.66</text>
</g>
<!-- test_queue&#45;&gt;incomplete -->
<g id="edge5" class="edge">
<title>test_queue&#45;&gt;incomplete</title>
<path fill="none" stroke="black" stroke-width="1.68" d="M337,-90.48C382.16,-87.35 459.4,-81.99 510.14,-78.47"/>
<polygon fill="black" stroke="black" stroke-width="1.68" points="510.16,-81.98 519.9,-77.8 509.68,-75 510.16,-81.98"/>
<text xml:space="preserve" text-anchor="middle" x="423.5" y="-89.28" font-family="Times,serif" font-size="14.00">0.34</text>
</g>
</g>
</svg>
